<?xml version="1.0"?>
<svg xmlns="http://www.w3.org/2000/svg" xmlns:xlink="http://www.w3.org/1999/xlink" version="1.1" id="Capa_1" x="0px" y="0px" viewBox="0 0 512 512" style="enable-background:new 0 0 512 512;" xml:space="preserve" width="512px" height="512px" class=""><g><g>
	<g>
		<path d="M419.839,226.962c-1.938,0-3.895,0.061-5.815,0.181c-4.065,0.254-7.155,3.754-6.901,7.82    c0.254,4.065,3.719,7.155,7.82,6.902c1.616-0.101,3.264-0.152,4.897-0.152c42.684,0,77.411,34.726,77.411,77.411    s-34.726,77.411-77.411,77.411s-77.411-34.726-77.411-77.411c0-21.728,9.217-42.588,25.287-57.232    c3.01-2.743,3.227-7.409,0.484-10.419c-2.745-3.011-7.409-3.226-10.419-0.484c-19.13,17.434-30.102,42.268-30.102,68.135    c0,50.818,41.343,92.161,92.161,92.161c50.818,0,92.16-41.344,92.16-92.162C512,268.305,470.657,226.962,419.839,226.962z" data-original="#000000" class="active-path" data-old_color="#FD0303" fill="#FD0202"/>
	</g>
</g><g>
	<g>
		<path d="M424.531,248.749c-4.048-0.275-7.576,2.808-7.844,6.873c-0.269,4.064,2.808,7.577,6.873,7.844    c29.19,1.929,52.057,26.376,52.057,55.656c0,30.756-25.022,55.778-55.778,55.778c-30.756,0-55.778-25.022-55.778-55.778    c0-13.435,4.866-26.423,13.701-36.572c2.675-3.072,2.353-7.73-0.719-10.405c-3.073-2.673-7.73-2.353-10.406,0.72    c-11.172,12.835-17.325,29.262-17.325,46.257c0,38.889,31.638,70.527,70.527,70.527c38.889,0,70.527-31.638,70.527-70.527    C490.366,282.1,461.448,251.188,424.531,248.749z" data-original="#000000" class="active-path" data-old_color="#FD0303" fill="#FD0202"/>
	</g>
</g><g>
	<g>
		<path d="M174.368,344.408c-3.827-1.398-8.06,0.577-9.455,4.402c-11.099,30.441-40.336,50.893-72.752,50.893    c-42.684,0-77.411-34.726-77.411-77.411s34.726-77.411,77.411-77.411c17.361,0,33.765,5.614,47.44,16.234    c3.216,2.496,7.849,1.917,10.349-1.301c2.498-3.217,1.916-7.85-1.301-10.349c-16.286-12.649-35.819-19.334-56.487-19.334    C41.343,230.131,0,271.474,0,322.292s41.343,92.161,92.161,92.161c38.59,0,73.396-24.349,86.609-60.59    C180.165,350.036,178.195,345.803,174.368,344.408z" data-original="#000000" class="active-path" data-old_color="#FD0303" fill="#FD0202"/>
	</g>
</g><g>
	<g>
		<path d="M151.002,346.39c-3.563-1.976-8.051-0.692-10.027,2.869c-9.862,17.771-28.566,28.81-48.814,28.81    c-30.756,0-55.778-25.022-55.778-55.778s25.022-55.778,55.778-55.778c10.092,0,19.983,2.736,28.606,7.911    c3.489,2.095,8.021,0.965,10.118-2.528c2.096-3.492,0.964-8.022-2.528-10.118c-10.914-6.551-23.431-10.014-36.196-10.014    c-38.889,0-70.527,31.639-70.527,70.528c0,38.889,31.638,70.527,70.527,70.527c25.603,0,49.25-13.949,61.71-36.402    C155.847,352.855,154.562,348.366,151.002,346.39z" data-original="#000000" class="active-path" data-old_color="#FD0303" fill="#FD0202"/>
	</g>
</g><g>
	<g>
		<path d="M436.457,309.855l-39.927-90.221c-2.934-6.63-9.471-10.56-16.296-10.528l-7.402-16.883l2.415-2.769    c4.75-5.447,5.929-13.235,3.005-19.84l-8.72-19.704c-2.035-4.599-5.909-8.233-10.629-9.972c-3.018-1.111-6.272-1.399-9.41-0.899    l-0.936-2.132l15.435-5.498c3.534-1.259,5.814-4.623,5.674-8.372c-0.14-3.749-2.665-6.933-6.279-7.924L300.384,97.81    c-1.294-0.355-2.659-0.351-3.949,0.012l-12.144,3.414c-3.922,1.101-6.206,5.174-5.104,9.095c1.101,3.922,5.178,6.208,9.095,5.104    l10.171-2.859l42.038,11.545l-1.501,0.535c-2.655,0.946-4.819,2.974-5.935,5.562c-1.116,2.588-1.106,5.552,0.026,8.13l2.792,6.363    L197.998,211.03l-9.212-32.482l35.68-13.847c6.08-2.36,9.42-8.898,7.768-15.211l-0.294-1.122    c-1.696-6.474-7.948-10.515-14.548-9.4l-61.072,10.324c-5.029,0.85-9.076,4.596-10.309,9.541l-2.592,10.378    c-0.972,3.897-0.098,7.936,2.4,11.082c2.454,3.092,6.104,4.853,10.041,4.853c0.069,0,0.137-0.001,0.206-0.002l14.076-0.219    c1.528-0.022,3.026-0.315,4.45-0.868l0.371-0.144l9.672,34.06c0,0,0.001-0.001,0.002-0.001    c-5.826,4.589-8.497,12.306-6.419,19.705l1.738,6.187L79.001,311.413c-6.985,4.675-9.996,13.503-7.322,21.472    c2.557,7.619,9.674,12.737,17.707,12.737c0.367,0,0.738-0.011,1.086-0.032l97.107-5.631c4.935,16.518,20.26,28.596,38.362,28.596    c10.174,0,19.468-3.821,26.539-10.095l6.4,4.968c1.301,1.01,2.894,1.55,4.523,1.55c0.323,0,0.647-0.021,0.971-0.064    c1.956-0.259,3.726-1.293,4.915-2.867l9.465-12.537c2.454-3.251,1.809-7.875-1.441-10.329c-3.252-2.454-7.877-1.807-10.33,1.441    l-4.962,6.572l-0.487-0.378c2.833-5.488,4.444-11.706,4.444-18.296c0-4.087-0.619-8.031-1.762-11.748l97.897-112.255l4.751,10.829    c-1.267,1.494-2.303,3.192-3.03,5.073c-1.704,4.411-1.588,9.221,0.326,13.543l39.927,90.221    c2.833,6.402,9.188,10.539,16.191,10.539c2.476,0,4.883-0.51,7.158-1.516c4.323-1.913,7.643-5.396,9.347-9.806    C438.486,318.988,438.371,314.178,436.457,309.855z M169.574,170.182l-11.237,0.175l1.68-6.731l46.859-7.921L169.574,170.182z     M195.942,302.049c0.001-0.001,0.001-0.002,0.002-0.003l-39.148,2.27l33.79-22.609l5.626,20.03    C196.12,301.839,196.033,301.946,195.942,302.049z M249.565,337.523l-19.1-14.829c-3.218-2.499-7.85-1.916-10.348,1.302    c-2.498,3.218-1.915,7.85,1.302,10.348l19.092,14.823c-4.122,2.917-9.147,4.638-14.569,4.638    c-13.943,0-25.286-11.343-25.286-25.286c0-13.943,11.343-25.286,25.286-25.286s25.286,11.343,25.286,25.286    C251.227,331.69,250.635,334.724,249.565,337.523z M218.431,242.666l104.793-50.407l-85.47,98.005    c-2.049-0.634-4.171-1.099-6.346-1.397L218.431,242.666z M364.131,179.76L256.71,302.936c-1.685-2.023-3.567-3.875-5.614-5.533    c0,0,0.001,0.001,0.002,0.001l102.374-117.388c1.882-2.159,2.345-5.211,1.187-7.831l-1.083-2.449    c-0.809-1.825-2.322-3.247-4.195-3.936c-1.874-0.691-3.948-0.592-5.746,0.274L206.46,232.056    c-3.226,1.552-4.871,5.194-3.904,8.641l13.754,48.966c0.002,0,0.004-0.001,0.006-0.001c-2.585,0.641-5.072,1.531-7.432,2.648    l-6.848-24.38c-0.64-2.275-2.33-4.106-4.546-4.924c-2.218-0.817-4.692-0.524-6.656,0.789l-64.749,43.324    c-2.765,1.85-3.949,5.322-2.89,8.476c1.013,3.017,3.838,5.028,6.989,5.028c0.142,0,0.286-0.004,0.43-0.012l56.899-3.3    c-0.748,2.56-1.245,5.225-1.466,7.969c0-0.002,0-0.003,0-0.004l-96.454,5.593c-1.744,0.129-3.372-1.005-3.932-2.674    c-0.563-1.678,0.071-3.537,1.541-4.52l105.4-70.524c2.651-1.775,3.861-5.052,2.999-8.124l-3.184-11.336    c-0.517-1.84,0.359-3.779,2.082-4.607l156.246-75.154c0.952-0.459,2.067-0.513,3.06-0.146c0.993,0.366,1.809,1.131,2.237,2.099    l8.72,19.704C365.379,176.974,365.131,178.613,364.131,179.76z M423.024,318.083c-0.164,0.425-0.586,1.203-1.557,1.633    c-1.48,0.655-3.255-0.063-3.893-1.504l-39.927-90.222c-0.43-0.972-0.219-1.83-0.055-2.257c0.164-0.425,0.586-1.203,1.557-1.633    c0.388-0.171,0.792-0.253,1.191-0.253c1.133,0,2.215,0.656,2.702,1.755l39.927,90.222    C423.4,316.797,423.188,317.656,423.024,318.083z" data-original="#000000" class="active-path" data-old_color="#FD0303" fill="#FD0202"/>
	</g>
</g></g> </svg>
