<svg fill="#fff" viewBox="0 0 512 512" xmlns="http://www.w3.org/2000/svg"><path d="m496 320h-91.86c-9.27 0-19.72-11.31-25.78-28.52-15.23-43.36-48.11-70.3-85.8-70.3-30.84 0-58.47 18.05-76.11 49.23l-21.65-163.91c-5.96-25.42-25.46-42.5-48.52-42.5-23.05 0-42.55 17.08-48.5 42.5l-41.62 177.7c-5.46 23.25-18.41 35.8-27.83 35.8h-12.33c-8.84 0-16 7.16-16 16v32c0 8.84 7.16 16 16 16h12.33c41.97 0 78.19-34.23 90.14-85.2l23.84-101.78 29.25 222.11c1.98 15.05 13.82 27.45 28.94 28.75.99.09 1.96.13 2.93.13 14.08 0 26.64-9.27 30.69-22.95l33.03-112.34c5.88-16.72 15.84-27.52 25.41-27.52 9.58 0 19.55 10.8 25.78 28.52 15.23 43.36 48.11 70.3 85.8 70.3h91.86c8.84 0 16-7.16 16-16v-32c0-8.86-7.16-16.02-16-16.02z"/></svg>
